<svg id="my-svg" width="100%" xmlns="http://www.w3.org/2000/svg" xmlns:xlink="http://www.w3.org/1999/xlink" style="max-width: 519.957px; background-color: transparent;" viewBox="-8 -8 519.95703125 1142.078125" role="graphics-document document" aria-roledescription="flowchart-v2"><style>#my-svg{font-family:"trebuchet ms",verdana,arial,sans-serif;font-size:15px;fill:#1f2328;}#my-svg .error-icon{fill:hsl(30, 28.5714285714%, 100%);}#my-svg .error-text{fill:#000000;stroke:#000000;}#my-svg .edge-thickness-normal{stroke-width:2px;}#my-svg .edge-thickness-thick{stroke-width:3.5px;}#my-svg .edge-pattern-solid{stroke-dasharray:0;}#my-svg .edge-pattern-dashed{stroke-dasharray:3;}#my-svg .edge-pattern-dotted{stroke-dasharray:2;}#my-svg .marker{fill:#57606a;stroke:#57606a;}#my-svg .marker.cross{stroke:#57606a;}#my-svg svg{font-family:"trebuchet ms",verdana,arial,sans-serif;font-size:15px;}#my-svg .label{font-family:"trebuchet ms",verdana,arial,sans-serif;color:#1f2328;}#my-svg .cluster-label text{fill:#000000;}#my-svg .cluster-label span,#my-svg p{color:#000000;}#my-svg .label text,#my-svg span,#my-svg p{fill:#1f2328;color:#1f2328;}#my-svg .node rect,#my-svg .node circle,#my-svg .node ellipse,#my-svg .node polygon,#my-svg .node path{fill:#f6f8fa;stroke:#d0d7de;stroke-width:1px;}#my-svg .flowchart-label text{text-anchor:middle;}#my-svg .node .katex path{fill:#000;stroke:#000;stroke-width:1px;}#my-svg .node .label{text-align:center;}#my-svg .node.clickable{cursor:pointer;}#my-svg .arrowheadPath{fill:#000000;}#my-svg .edgePath .path{stroke:#57606a;stroke-width:2.0px;}#my-svg .flowchart-link{stroke:#57606a;fill:none;}#my-svg .edgeLabel{background-color:hsl(90, 28.5714285714%, 97.2549019608%);text-align:center;}#my-svg .edgeLabel rect{opacity:0.5;background-color:hsl(90, 28.5714285714%, 97.2549019608%);fill:hsl(90, 28.5714285714%, 97.2549019608%);}#my-svg .labelBkg{background-color:rgba(248, 250, 246.0000000001, 0.5);}#my-svg .cluster rect{fill:hsl(30, 28.5714285714%, 100%);stroke:hsl(30, 0%, 90%);stroke-width:1px;}#my-svg .cluster text{fill:#000000;}#my-svg .cluster span,#my-svg p{color:#000000;}#my-svg div.mermaidTooltip{position:absolute;text-align:center;max-width:200px;padding:2px;font-family:"trebuchet ms",verdana,arial,sans-serif;font-size:12px;background:hsl(30, 28.5714285714%, 100%);border:1px solid hsl(30, 0%, 90%);border-radius:2px;pointer-events:none;z-index:100;}#my-svg .flowchartTitleText{text-anchor:middle;font-size:18px;fill:#1f2328;}#my-svg :root{--mermaid-font-family:"trebuchet ms",verdana,arial,sans-serif;}</style><g><marker id="my-svg_flowchart-pointEnd" class="marker flowchart" viewBox="0 0 10 10" refX="6" refY="5" markerUnits="userSpaceOnUse" markerWidth="12" markerHeight="12" orient="auto"><path d="M 0 0 L 10 5 L 0 10 z" class="arrowMarkerPath" style="stroke-width: 1; stroke-dasharray: 1, 0;"/></marker><marker id="my-svg_flowchart-pointStart" class="marker flowchart" viewBox="0 0 10 10" refX="4.5" refY="5" markerUnits="userSpaceOnUse" markerWidth="12" markerHeight="12" orient="auto"><path d="M 0 5 L 10 10 L 10 0 z" class="arrowMarkerPath" style="stroke-width: 1; stroke-dasharray: 1, 0;"/></marker><marker id="my-svg_flowchart-circleEnd" class="marker flowchart" viewBox="0 0 10 10" refX="11" refY="5" markerUnits="userSpaceOnUse" markerWidth="11" markerHeight="11" orient="auto"><circle cx="5" cy="5" r="5" class="arrowMarkerPath" style="stroke-width: 1; stroke-dasharray: 1, 0;"/></marker><marker id="my-svg_flowchart-circleStart" class="marker flowchart" viewBox="0 0 10 10" refX="-1" refY="5" markerUnits="userSpaceOnUse" markerWidth="11" markerHeight="11" orient="auto"><circle cx="5" cy="5" r="5" class="arrowMarkerPath" style="stroke-width: 1; stroke-dasharray: 1, 0;"/></marker><marker id="my-svg_flowchart-crossEnd" class="marker cross flowchart" viewBox="0 0 11 11" refX="12" refY="5.2" markerUnits="userSpaceOnUse" markerWidth="11" markerHeight="11" orient="auto"><path d="M 1,1 l 9,9 M 10,1 l -9,9" class="arrowMarkerPath" style="stroke-width: 2; stroke-dasharray: 1, 0;"/></marker><marker id="my-svg_flowchart-crossStart" class="marker cross flowchart" viewBox="0 0 11 11" refX="-1" refY="5.2" markerUnits="userSpaceOnUse" markerWidth="11" markerHeight="11" orient="auto"><path d="M 1,1 l 9,9 M 10,1 l -9,9" class="arrowMarkerPath" style="stroke-width: 2; stroke-dasharray: 1, 0;"/></marker><g class="root"><g class="clusters"/><g class="edgePaths"><path d="M196.363,32L196.363,36.167C196.363,40.333,196.363,48.667,196.363,56.117C196.363,63.567,196.363,70.133,196.363,73.417L196.363,76.7" id="L-A-B-0" class="edge-thickness-normal edge-pattern-solid flowchart-link LS-A LE-B" style="fill:none;" marker-end="url(#my-svg_flowchart-pointEnd)"/><path d="M196.363,144L196.363,148.167C196.363,152.333,196.363,160.667,196.429,168.2C196.495,175.734,196.627,182.467,196.693,185.834L196.759,189.201" id="L-B-C-0" class="edge-thickness-normal edge-pattern-solid flowchart-link LS-B LE-C" style="fill:none;" marker-end="url(#my-svg_flowchart-pointEnd)"/><path d="M147.466,365.54L136.162,379.273C124.858,393.006,102.249,420.472,90.945,440.155C79.641,459.838,79.641,471.738,79.641,477.688L79.641,483.638" id="L-C-X-0" class="edge-thickness-normal edge-pattern-solid flowchart-link LS-C LE-X" style="fill:none;" marker-end="url(#my-svg_flowchart-pointEnd)"/><path d="M246.26,365.54L257.398,379.273C268.536,393.006,290.811,420.472,301.948,438.905C313.086,457.338,313.086,466.738,313.086,471.438L313.086,476.138" id="L-C-D-0" class="edge-thickness-normal edge-pattern-solid flowchart-link LS-C LE-D" style="fill:none;" marker-end="url(#my-svg_flowchart-pointEnd)"/><path d="M313.086,543.438L313.086,547.604C313.086,551.771,313.086,560.104,313.152,567.638C313.218,575.171,313.35,581.905,313.416,585.272L313.482,588.639" id="L-D-E-0" class="edge-thickness-normal edge-pattern-solid flowchart-link LS-D LE-E" style="fill:none;" marker-end="url(#my-svg_flowchart-pointEnd)"/><path d="M279.296,700.038L268.422,711.253C257.549,722.468,235.802,744.898,224.928,778.051C214.055,811.203,214.055,855.078,214.055,898.953C214.055,942.828,214.055,986.703,217.228,1015.914C220.401,1045.125,226.747,1059.673,229.92,1066.947L233.093,1074.22" id="L-E-Y-0" class="edge-thickness-normal edge-pattern-solid flowchart-link LS-E LE-Y" style="fill:none;" marker-end="url(#my-svg_flowchart-pointEnd)"/><path d="M342.051,705.863L349.013,716.107C355.974,726.351,369.897,746.84,376.929,761.867C383.961,776.895,384.102,786.462,384.172,791.245L384.242,796.029" id="L-E-F-0" class="edge-thickness-normal edge-pattern-solid flowchart-link LS-E LE-F" style="fill:none;" marker-end="url(#my-svg_flowchart-pointEnd)"/><path d="M349.97,963.228L343.796,974.453C337.622,985.678,325.274,1008.128,310.812,1026.91C296.351,1045.692,279.776,1060.806,271.489,1068.363L263.201,1075.92" id="L-F-Y-0" class="edge-thickness-normal edge-pattern-solid flowchart-link LS-F LE-Y" style="fill:none;" marker-end="url(#my-svg_flowchart-pointEnd)"/><path d="M409.503,972.396L412.796,982.093C416.089,991.79,422.675,1011.184,425.969,1025.581C429.262,1039.978,429.262,1049.378,429.262,1054.078L429.262,1058.778" id="L-F-G-0" class="edge-thickness-normal edge-pattern-solid flowchart-link LS-F LE-G" style="fill:none;" marker-end="url(#my-svg_flowchart-pointEnd)"/></g><g class="edgeLabels"><g class="edgeLabel"><g class="label" transform="translate(0, 0)"><rect rx="0" ry="0" width="0" height="0"/><text style=""><tspan xml:space="preserve" dy="1em" x="0" class="row"/></text></g></g><g class="edgeLabel"><g class="label" transform="translate(0, 0)"><rect rx="0" ry="0" width="0" height="0"/><text style=""><tspan xml:space="preserve" dy="1em" x="0" class="row"/></text></g></g><g class="edgeLabel" transform="translate(79.640625, 447.9375)"><g class="label" transform="translate(-8.34375, -8.5)"><rect rx="0" ry="0" width="16.672103881835938" height="17.000232696533203"/><text style=""><tspan xml:space="preserve" dy="1em" x="0" class="row">no</tspan></text></g></g><g class="edgeLabel" transform="translate(313.0859375, 447.9375)"><g class="label" transform="translate(-11.671875, -8.5)"><rect rx="0" ry="0" width="23.328445434570312" height="17.000232696533203"/><text style=""><tspan xml:space="preserve" dy="1em" x="0" class="row">yes</tspan></text></g></g><g class="edgeLabel"><g class="label" transform="translate(0, 0)"><rect rx="0" ry="0" width="0" height="0"/><text style=""><tspan xml:space="preserve" dy="1em" x="0" class="row"/></text></g></g><g class="edgeLabel" transform="translate(214.0546875, 898.953125)"><g class="label" transform="translate(-8.34375, -8.5)"><rect rx="0" ry="0" width="16.672103881835938" height="17.000232696533203"/><text style=""><tspan xml:space="preserve" dy="1em" x="0" class="row">no</tspan></text></g></g><g class="edgeLabel" transform="translate(383.8203125, 767.328125)"><g class="label" transform="translate(-11.671875, -8.5)"><rect rx="0" ry="0" width="23.328445434570312" height="17.000232696533203"/><text style=""><tspan xml:space="preserve" dy="1em" x="0" class="row">yes</tspan></text></g></g><g class="edgeLabel" transform="translate(312.92578125, 1030.578125)"><g class="label" transform="translate(-36.2734375, -8.5)"><rect rx="0" ry="0" width="72.47465515136719" height="17.000232696533203"/><text style=""><tspan xml:space="preserve" dy="1em" x="0" class="row">below floor</tspan></text></g></g><g class="edgeLabel" transform="translate(429.26171875, 1030.578125)"><g class="label" transform="translate(-34.609375, -8.5)"><rect rx="0" ry="0" width="69.14523315429688" height="17.000232696533203"/><text style=""><tspan xml:space="preserve" dy="1em" x="0" class="row">A or better</tspan></text></g></g></g><g class="nodes"><g class="node default default flowchart-label" id="flowchart-A-0" data-node="true" data-id="A" transform="translate(196.36328125, 16)"><rect class="basic label-container" style="" rx="0" ry="0" x="-47.390625" y="-16" width="94.78125" height="32"/><g class="label" style="" transform="translate(0, -8.5)"><rect/><text style=""><tspan xml:space="preserve" dy="1em" x="0" class="row">hex scaffold</tspan></text></g></g><g class="node default default flowchart-label" id="flowchart-B-1" data-node="true" data-id="B" transform="translate(196.36328125, 113)"><rect class="basic label-container" style="" rx="0" ry="0" x="-96.703125" y="-31" width="193.40625" height="62"/><g class="label" style="" transform="translate(0, -23.5)"><rect/><text style=""><tspan xml:space="preserve" dy="1em" x="0" class="row">1. FLOOR</tspan><tspan xml:space="preserve" dy="1em" x="0" class="row">deterministic skeleton from</tspan><tspan xml:space="preserve" dy="1em" x="0" class="row">templates in the binary</tspan></text></g></g><g class="node default default flowchart-label" id="flowchart-C-3" data-node="true" data-id="C" transform="translate(196.36328125, 304.21875)"><polygon points="110.21875,0 220.4375,-110.21875 110.21875,-220.4375 0,-110.21875" class="label-container" transform="translate(-110.21875,110.21875)" style="fill:#2d333b;stroke:#539bf5;"/><g class="label" style="color:#adbac7;" transform="translate(0, -23.5)"><rect/><text style="fill:#adbac7;"><tspan xml:space="preserve" dy="1em" x="0" class="row">floor gate</tspan><tspan xml:space="preserve" dy="1em" x="0" class="row">does the skeleton run</tspan><tspan xml:space="preserve" dy="1em" x="0" class="row">on this machine?</tspan></text></g></g><g class="node default default flowchart-label" id="flowchart-X-5" data-node="true" data-id="X" transform="translate(79.640625, 512.4375)"><rect class="basic label-container" style="fill:#2d333b;stroke:#c69026;" rx="0" ry="0" x="-79.640625" y="-23.5" width="159.28125" height="47"/><g class="label" style="color:#adbac7;" transform="translate(0, -16)"><rect/><text style="fill:#adbac7;"><tspan xml:space="preserve" dy="1em" x="0" class="row">stop, before spending</tspan><tspan xml:space="preserve" dy="1em" x="0" class="row">a model call</tspan></text></g></g><g class="node default default flowchart-label" id="flowchart-D-7" data-node="true" data-id="D" transform="translate(313.0859375, 512.4375)"><rect class="basic label-container" style="" rx="0" ry="0" x="-103.8046875" y="-31" width="207.609375" height="62"/><g class="label" style="" transform="translate(0, -23.5)"><rect/><text style=""><tspan xml:space="preserve" dy="1em" x="0" class="row">2. BUILD</tspan><tspan xml:space="preserve" dy="1em" x="0" class="row">N designs, each red-teamed,</tspan><tspan xml:space="preserve" dy="1em" x="0" class="row">then built to the gate</tspan></text></g></g><g class="node default default flowchart-label" id="flowchart-E-9" data-node="true" data-id="E" transform="translate(313.0859375, 663.6328125)"><polygon points="70.1953125,0 140.390625,-70.1953125 70.1953125,-140.390625 0,-70.1953125" class="label-container" transform="translate(-70.1953125,70.1953125)" style="fill:#2d333b;stroke:#539bf5;"/><g class="label" style="color:#adbac7;" transform="translate(0, -16)"><rect/><text style="fill:#adbac7;"><tspan xml:space="preserve" dy="1em" x="0" class="row">gate</tspan><tspan xml:space="preserve" dy="1em" x="0" class="row">does it run?</tspan></text></g></g><g class="node default default flowchart-label" id="flowchart-Y-11" data-node="true" data-id="Y" transform="translate(242.19140625, 1095.078125)"><rect class="basic label-container" style="fill:#2d333b;stroke:#e5534b;" rx="0" ry="0" x="-17.09375" y="-16" width="34.1875" height="32"/><g class="label" style="color:#adbac7;" transform="translate(0, -8.5)"><rect/><text style="fill:#adbac7;"><tspan xml:space="preserve" dy="1em" x="0" class="row">fail</tspan></text></g></g><g class="node default default flowchart-label" id="flowchart-F-13" data-node="true" data-id="F" transform="translate(383.8203125, 898.953125)"><polygon points="98.125,0 196.25,-98.125 98.125,-196.25 0,-98.125" class="label-container" transform="translate(-98.125,98.125)" style="fill:#2d333b;stroke:#986ee2;"/><g class="label" style="color:#adbac7;" transform="translate(0, -16)"><rect/><text style="fill:#adbac7;"><tspan xml:space="preserve" dy="1em" x="0" class="row">architecture grade</tspan><tspan xml:space="preserve" dy="1em" x="0" class="row">is it the right shape?</tspan></text></g></g><g class="node default default flowchart-label" id="flowchart-G-17" data-node="true" data-id="G" transform="translate(429.26171875, 1095.078125)"><rect class="basic label-container" style="fill:#2d333b;stroke:#57ab5a;" rx="0" ry="0" x="-74.6953125" y="-31" width="149.390625" height="62"/><g class="label" style="color:#adbac7;" transform="translate(0, -23.5)"><rect/><text style="fill:#adbac7;"><tspan xml:space="preserve" dy="1em" x="0" class="row">3. SHIP</tspan><tspan xml:space="preserve" dy="1em" x="0" class="row">with rules that travel</tspan><tspan xml:space="preserve" dy="1em" x="0" class="row">with the project</tspan></text></g></g></g></g></g></svg>